# xmcd CD database file
#
# Track frame offsets:
#	150
#	16674
#	38606
#	58833
#	76539
#	95967
#	112303
#	130804
#	149339
#	165429
#	181919
#	199321
#	214648
#
# Disc length: 3086 seconds
#
# Revision: 0
# Processed by: cddbd v1.5.1PL0 Copyright (c) Steve Scherf et al.
# Submitted via: CDex 1.51
#
DISCID=af0c0c0d
DTITLE=Sonora Carruseles - Salsa Y Fuego
DYEAR=1999
DGENRE=Salsa
TTITLE0=La Virgen de la Marcarena [Salsa Flamenca]
TTITLE1=La Chola Caderona
TTITLE2=Margoth
TTITLE3=Tocando en Rufo [Pachanga]
TTITLE4=En Buenaventura
TTITLE5=Soy el Rey [Boogaloo]
TTITLE6=Cachita [Rumba]
TTITLE7=Oriente [Pachanga]
TTITLE8=Mosaico [Cógele El Golpe]
TTITLE9=Luz de Cumbia [Cumbia]
TTITLE10=Mi Pedacito de Tierra
TTITLE11=Alegre Conga [Conga]
TTITLE12=Federico Boogaloo [Boogaloo]
EXTD=YEAR: 1999
EXTT0=
EXTT1=
EXTT2=
EXTT3=
EXTT4=
EXTT5=
EXTT6=
EXTT7=
EXTT8=
EXTT9=
EXTT10=
EXTT11=
EXTT12=
PLAYORDER=
